<svg width="375" height="667" viewBox="0 0 375 667" fill="none" xmlns="http://www.w3.org/2000/svg">
    <g clip-path="url(#clip0)">
        <path d="M375 0H0V667H375V0Z" fill="#2892D7"/>
        <path d="M3.05176e-05 293.467C54.917 298.703 105.796 266.635 151.555 235.823C196.563 205.516 235.657 167.245 259.695 118.599C284.214 68.9789 301.369 12.3579 288.585 -41.4921C276.179 -93.7521 228.572 -127.028 192.038 -166.401C156.837 -204.337 129.658 -259.179 78.623 -267.765C27.686 -276.334 -12.695 -226.296 -61.378 -209.033C-106.443 -193.053 -163.052 -204.44 -196.452 -170.226C-230.081 -135.778 -230.242 -81.5421 -232.768 -33.4671C-235.116 11.2049 -227.34 54.6859 -210.448 96.1079C-192.979 138.944 -167.799 176.949 -134.055 208.594C-94.68 245.52 -53.737 288.344 3.05176e-05 293.467Z" fill="#2075AC"/>
        <path d="M375 895.531C418.006 902.003 462.306 882.975 496.663 856.311C529.594 830.753 542.497 789.315 560.378 751.66C578.547 713.399 601.043 676.697 602.064 634.353C603.195 587.448 596.248 537.351 566.422 501.132C536.36 464.627 488.996 441.665 441.748 439.677C397.879 437.831 365.64 479.3 323.292 490.9C279.741 502.829 222.112 474.791 191.701 508.17C161.472 541.35 192.028 595.382 187.424 640.031C183.076 682.204 147.182 724.439 165.457 762.695C183.764 801.017 238.924 800.184 274.794 822.923C310.352 845.464 333.368 889.266 375 895.531Z" fill="#53A8DF"/>
    </g>
    <defs>
        <clipPath id="clip0">
            <rect width="375" height="667" fill="white"/>
        </clipPath>
    </defs>
</svg>
